<svg width="16" height="16" viewBox="0 0 16 16" fill="none" xmlns="http://www.w3.org/2000/svg">
<circle cx="8.27143" cy="7.68924" r="5.98673" transform="rotate(-16 8.27143 7.68924)" fill="#ECF0FF"/>
<g clip-path="url(#clip0_310_12105)">
<path fill-rule="evenodd" clip-rule="evenodd" d="M6.158 8.02186C6.01875 8.06179 5.93823 8.20705 5.97816 8.3463C6.01809 8.48556 6.16335 8.56608 6.3026 8.52615L8.06761 8.02004L8.57372 9.78505C8.61365 9.9243 8.75891 10.0048 8.89817 9.96489C9.03742 9.92496 9.11794 9.7797 9.07801 9.64044L8.5719 7.87544L10.3369 7.36933C10.4762 7.3294 10.5567 7.18414 10.5168 7.04488C10.4768 6.90563 10.3316 6.82511 10.1923 6.86504L8.4273 7.37115L7.92119 5.60614C7.88126 5.46688 7.736 5.38637 7.59675 5.4263C7.45749 5.46623 7.37697 5.61149 7.4169 5.75074L7.92301 7.51575L6.158 8.02186Z" fill="#2D5BFF"/>
</g>
<defs>
<clipPath id="clip0_310_12105">
<rect width="5.98673" height="5.98673" fill="white" transform="translate(4.56909 5.63635) rotate(-16)"/>
</clipPath>
</defs>
</svg>
