<svg width="24" height="24" viewBox="0 0 24 24" fill="none" xmlns="http://www.w3.org/2000/svg">
<path d="M21.64 12.9997C21.4957 12.8803 21.3207 12.804 21.1351 12.7792C20.9494 12.7545 20.7606 12.7823 20.59 12.8597C19.5326 13.3435 18.3829 13.5926 17.22 13.5897C15.0689 13.5871 13.006 12.7341 11.4812 11.2168C9.95632 9.69943 9.09321 7.64077 9.08001 5.48966C9.08457 4.8155 9.16848 4.14421 9.33001 3.48966C9.36429 3.3152 9.35143 3.13476 9.29277 2.96692C9.2341 2.79908 9.13175 2.64991 8.99626 2.53479C8.86076 2.41967 8.69702 2.34276 8.52191 2.31198C8.3468 2.28119 8.16665 2.29765 8.00001 2.35966C6.43234 3.06457 5.06958 4.15642 4.03977 5.53265C3.00996 6.90887 2.34689 8.52429 2.11286 10.2271C1.87883 11.93 2.08152 13.6644 2.70188 15.2674C3.32225 16.8704 4.33993 18.2894 5.65931 19.3911C6.9787 20.4928 8.55649 21.241 10.2445 21.5655C11.9324 21.8899 13.6752 21.7799 15.309 21.2459C16.9428 20.7118 18.414 19.7712 19.5844 18.5124C20.7548 17.2536 21.5861 15.7179 22 14.0497C22.0504 13.8587 22.0431 13.657 21.9791 13.4701C21.915 13.2833 21.797 13.1196 21.64 12.9997ZM12.14 19.6897C10.4618 19.6778 8.82821 19.1475 7.46301 18.1714C6.0978 17.1953 5.06768 15.821 4.5137 14.2368C3.95971 12.6526 3.90895 10.9358 4.36835 9.32167C4.82776 7.70749 5.77487 6.27476 7.08001 5.21966V5.48966C7.08266 8.17815 8.15183 10.7558 10.0529 12.6568C11.9539 14.5578 14.5315 15.627 17.22 15.6297C17.9259 15.6323 18.63 15.5585 19.32 15.4097C18.6299 16.7152 17.5965 17.8075 16.3312 18.5688C15.0659 19.3301 13.6167 19.7315 12.14 19.7297V19.6897Z" fill="black"/>
</svg>
